<?xml version="1.0" encoding="UTF-8" standalone="no"?>
<!DOCTYPE svg PUBLIC "-//W3C//DTD SVG 1.1//EN" "http://www.w3.org/Graphics/SVG/1.1/DTD/svg11.dtd">
<svg width="100%" height="100%" viewBox="0 0 491 150" version="1.1" xmlns="http://www.w3.org/2000/svg" xmlns:xlink="http://www.w3.org/1999/xlink" xml:space="preserve" xmlns:serif="http://www.serif.com/" style="fill-rule:evenodd;clip-rule:evenodd;stroke-linejoin:round;stroke-miterlimit:2;">
    <g transform="matrix(1,0,0,1,-261.21,-304.92)">
        <g>
            <g>
                <g>
                    <path d="M395.85,343.34C408.11,343.34 413.07,348.58 413.07,359.87C413.07,371.16 408.11,376.4 395.85,376.4L392.54,376.4C391.23,376.4 390.47,377.09 390.47,378.47L390.47,389.49C390.47,390.87 389.78,391.56 388.4,391.56L380.68,391.56C379.37,391.56 378.61,390.8 378.61,389.49L378.61,345.47C378.61,344.09 379.3,343.4 380.68,343.33L395.85,343.33L395.85,343.34ZM396.26,364.56C399.57,364.56 401.22,364.15 401.22,359.88C401.22,355.61 399.57,355.19 396.26,355.19L392.54,355.19C391.23,355.19 390.47,355.88 390.47,357.26L390.47,362.5C390.47,363.81 391.23,364.57 392.54,364.57L396.26,364.57L396.26,364.56Z" style="fill:rgb(63, 166, 73);fill-rule:nonzero;"/>
                    <path d="M426.99,343.34C428.37,343.34 429.06,344.03 429.06,345.41L429.06,389.5C429.06,390.81 428.37,391.57 426.99,391.57L419.41,391.57C418.1,391.57 417.34,390.81 417.34,389.5L417.34,345.4C417.34,344.02 418.1,343.33 419.41,343.33L426.99,343.33L426.99,343.34Z" style="fill:rgb(63, 166, 73);fill-rule:nonzero;"/>
                    <path d="M468.6,379.71C469.98,379.71 470.67,380.4 470.67,381.78L470.67,389.5C470.67,390.81 469.98,391.57 468.6,391.57L434.36,391.57C432.71,391.57 432.09,390.54 432.91,389.09L451.72,356.02C452,355.54 451.79,355.19 451.24,355.19L438.08,355.19C436.77,355.19 436.01,354.43 436.01,353.12L436.01,345.4C436.01,344.02 436.77,343.33 438.08,343.33L471.29,343.33C472.94,343.33 473.56,344.36 472.74,345.81L453.59,378.88C453.31,379.36 453.52,379.71 454.07,379.71L468.6,379.71Z" style="fill:rgb(63, 166, 73);fill-rule:nonzero;"/>
                    <path d="M509.24,379.71C510.62,379.71 511.31,380.4 511.31,381.78L511.31,389.5C511.31,390.81 510.62,391.57 509.24,391.57L475,391.57C473.35,391.57 472.73,390.54 473.55,389.09L492.36,356.02C492.64,355.54 492.43,355.19 491.88,355.19L478.72,355.19C477.41,355.19 476.65,354.43 476.65,353.12L476.65,345.4C476.65,344.02 477.41,343.33 478.72,343.33L511.93,343.33C513.58,343.33 514.2,344.36 513.38,345.81L494.23,378.88C493.95,379.36 494.16,379.71 494.71,379.71L509.24,379.71Z" style="fill:rgb(63, 166, 73);fill-rule:nonzero;"/>
                    <path d="M550.65,389.22C550.65,390.74 549.96,391.56 548.58,391.56L540.86,391.56C539.55,391.56 538.79,390.87 538.79,389.49L538.79,383.5C538.79,382.12 538.1,381.43 536.72,381.43L530.8,381.43C529.49,381.43 528.73,382.12 528.73,383.5L528.73,389.49C528.73,390.87 528.04,391.56 526.66,391.56L518.94,391.56C517.63,391.56 516.87,390.73 516.87,389.22L516.87,360.01C516.87,351.33 518.25,342.1 533.75,342.1C549.25,342.1 550.63,351.33 550.63,360.01L550.63,389.22L550.65,389.22ZM538.8,360.01C538.8,356.7 538.32,355.05 533.77,355.05C529.22,355.05 528.74,356.7 528.74,360.01L528.74,367.52C528.74,368.83 529.5,369.59 530.81,369.59L536.73,369.59C538.11,369.52 538.8,368.83 538.8,367.45L538.8,360.01Z" style="fill:rgb(63, 166, 73);fill-rule:nonzero;"/>
                    <path d="M564.29,343.34C565.53,343.34 566.29,343.96 566.56,345.13L572.62,371.59C572.76,372.21 573.31,372.21 573.45,371.59L579.51,345.13C579.79,343.96 580.54,343.34 581.78,343.34L589.98,343.34C591.43,343.34 592.12,344.17 591.77,345.61L581.71,389.77C581.43,390.94 580.68,391.56 579.44,391.56L566.63,391.56C565.39,391.56 564.63,390.94 564.36,389.77L554.3,345.61C553.96,344.16 554.64,343.34 556.09,343.34L564.29,343.34Z" style="fill:rgb(63, 166, 73);fill-rule:nonzero;"/>
                    <path d="M627.46,343.34C628.84,343.34 629.53,344.03 629.53,345.41L629.53,353.13C629.53,354.44 628.84,355.2 627.46,355.2L610.79,355.2C609.48,355.2 608.72,355.89 608.72,357.27L608.72,359.47C608.72,360.78 609.48,361.54 610.79,361.54L621.47,361.54C622.85,361.54 623.54,362.23 623.54,363.61L623.54,371.33C623.54,372.64 622.85,373.4 621.47,373.4L610.79,373.4C609.48,373.4 608.72,374.09 608.72,375.47L608.72,377.67C608.72,378.98 609.48,379.74 610.79,379.74L627.46,379.74C628.84,379.74 629.53,380.43 629.53,381.81L629.53,389.53C629.53,390.91 628.84,391.6 627.46,391.6L598.53,391.6C597.22,391.6 596.46,390.84 596.46,389.53L596.46,345.4C596.46,344.02 597.22,343.33 598.53,343.33L627.46,343.33L627.46,343.34Z" style="fill:rgb(63, 166, 73);fill-rule:nonzero;"/>
                    <path d="M634.14,358.84C634.14,354.29 635.1,342.1 651.43,342.1C665.9,342.1 668.31,351.61 668.65,356.98C668.72,358.22 668.1,358.98 666.86,359.25L659.07,360.97C657.69,361.25 656.93,360.63 656.8,359.18C656.52,355.87 655.35,353.94 651.43,353.94C646.33,353.94 645.99,357.18 645.99,362.48L645.99,372.4C645.99,377.7 646.33,380.94 651.43,380.94C656.53,380.94 656.87,377.7 656.87,374.33L652.87,374.33C651.56,374.33 650.8,373.57 650.8,372.26L650.8,366.75C650.8,365.37 651.56,364.68 652.87,364.68L666.65,364.68C668.03,364.68 668.72,365.37 668.72,366.75L668.72,376.05C668.72,380.6 667.76,392.79 651.43,392.79C635.1,392.79 634.14,380.6 634.14,376.05L634.14,358.84Z" style="fill:rgb(63, 166, 73);fill-rule:nonzero;"/>
                    <path d="M708.2,389.22C708.2,390.74 707.51,391.56 706.13,391.56L698.41,391.56C697.1,391.56 696.34,390.87 696.34,389.49L696.34,383.5C696.34,382.12 695.65,381.43 694.27,381.43L688.35,381.43C687.04,381.43 686.28,382.12 686.28,383.5L686.28,389.49C686.28,390.87 685.59,391.56 684.21,391.56L676.49,391.56C675.18,391.56 674.42,390.73 674.42,389.22L674.42,360.01C674.42,351.33 675.8,342.1 691.3,342.1C706.8,342.1 708.18,351.33 708.18,360.01L708.18,389.22L708.2,389.22ZM696.35,360.01C696.35,356.7 695.87,355.05 691.32,355.05C686.77,355.05 686.29,356.7 686.29,360.01L686.29,367.52C686.29,368.83 687.05,369.59 688.36,369.59L694.28,369.59C695.66,369.52 696.35,368.83 696.35,367.45L696.35,360.01Z" style="fill:rgb(63, 166, 73);fill-rule:nonzero;"/>
                    <path d="M726.94,343.34C728.11,343.34 728.87,343.82 729.35,344.92L738.72,367.86C739,368.48 739.55,368.34 739.55,367.65L739.55,345.4C739.55,344.02 740.31,343.33 741.62,343.33L749.34,343.33C750.72,343.33 751.41,344.02 751.41,345.4L751.41,389.49C751.41,390.8 750.72,391.56 749.34,391.56L739.2,391.56C738.03,391.56 737.27,391.08 736.79,389.98L727.42,367.04C727.14,366.42 726.59,366.56 726.59,367.25L726.59,389.5C726.59,390.81 725.9,391.57 724.52,391.57L716.8,391.57C715.49,391.57 714.73,390.81 714.73,389.5L714.73,345.4C714.73,344.02 715.49,343.33 716.8,343.33L726.94,343.33L726.94,343.34Z" style="fill:rgb(63, 166, 73);fill-rule:nonzero;"/>
                    <path d="M369.81,436.07C371.19,436.07 371.88,436.76 371.88,438.14L371.88,445.86C371.88,447.17 371.19,447.93 369.81,447.93L362.09,447.93C360.78,447.93 360.02,447.17 360.02,445.86L360.02,438.14C360.02,436.76 360.78,436.07 362.09,436.07L369.81,436.07Z" style="fill:rgb(63, 166, 73);fill-rule:nonzero;"/>
                    <path d="M376.35,415.19C376.35,410.64 377.31,398.45 393.64,398.45C408.31,398.45 410.59,408.3 410.86,413.61C410.93,414.57 410.31,415.33 409.34,415.54L401.69,417.26C400.24,417.54 399.14,416.57 398.93,415.12C398.59,412.09 397.35,410.3 393.63,410.3C388.53,410.3 388.19,413.54 388.19,418.84L388.19,428.76C388.19,434.06 388.53,437.3 393.63,437.3C397.42,437.3 398.45,435.51 398.87,432.34C399.08,430.89 400.18,430 401.56,430.34L409.35,432.06C410.31,432.27 410.93,433.02 410.87,434.06C410.59,439.3 408.32,449.15 393.65,449.15C377.32,449.15 376.36,436.96 376.36,432.41L376.36,415.19L376.35,415.19Z" style="fill:rgb(63, 166, 73);fill-rule:nonzero;"/>
                    <path d="M449.51,432.42C449.51,436.97 448.55,449.16 432.22,449.16C415.89,449.16 414.93,436.97 414.93,432.42L414.93,415.2C414.93,410.65 415.89,398.46 432.22,398.46C448.55,398.46 449.51,410.65 449.51,415.2L449.51,432.42ZM437.67,418.84C437.67,413.54 437.33,410.3 432.23,410.3C427.13,410.3 426.79,413.54 426.79,418.84L426.79,428.76C426.79,434.06 427.13,437.3 432.23,437.3C437.33,437.3 437.67,434.06 437.67,428.76L437.67,418.84Z" style="fill:rgb(63, 166, 73);fill-rule:nonzero;"/>
                    <path d="M472.04,399.69C473.28,399.69 473.97,400.38 474.24,401.55L479.13,421.6C479.27,422.29 479.82,422.29 479.96,421.6L484.85,401.55C485.13,400.38 485.81,399.69 487.05,399.69L501.31,399.69C502.69,399.69 503.38,400.38 503.38,401.76L503.38,445.85C503.38,447.16 502.69,447.92 501.31,447.92L493.59,447.92C492.28,447.92 491.52,447.16 491.52,445.85L491.52,418.71C491.52,418.23 490.9,418.16 490.76,418.64L484.08,446.13C483.8,447.3 483.05,447.92 481.81,447.92L477.26,447.92C476.02,447.92 475.26,447.3 474.99,446.13L468.31,418.64C468.17,418.16 467.55,418.23 467.55,418.71L467.55,445.85C467.55,447.16 466.86,447.92 465.48,447.92L457.76,447.92C456.38,447.92 455.69,447.16 455.69,445.85L455.69,401.76C455.69,400.38 456.38,399.69 457.76,399.69L472.04,399.69Z" style="fill:rgb(63, 166, 73);fill-rule:nonzero;"/>
                    <path d="M526.6,399.69C527.84,399.69 528.53,400.38 528.8,401.55L533.69,421.6C533.83,422.29 534.38,422.29 534.52,421.6L539.41,401.55C539.69,400.38 540.37,399.69 541.61,399.69L555.87,399.69C557.25,399.69 557.94,400.38 557.94,401.76L557.94,445.85C557.94,447.16 557.25,447.92 555.87,447.92L548.15,447.92C546.84,447.92 546.08,447.16 546.08,445.85L546.08,418.71C546.08,418.23 545.46,418.16 545.32,418.64L538.64,446.13C538.36,447.3 537.61,447.92 536.37,447.92L531.82,447.92C530.58,447.92 529.82,447.3 529.55,446.13L522.87,418.64C522.73,418.16 522.11,418.23 522.11,418.71L522.11,445.85C522.11,447.16 521.42,447.92 520.04,447.92L512.32,447.92C510.94,447.92 510.25,447.16 510.25,445.85L510.25,401.76C510.25,400.38 510.94,399.69 512.32,399.69L526.6,399.69Z" style="fill:rgb(170,208,55);fill-rule:nonzero;"/>
                    <path d="M574.21,399.69C575.59,399.69 576.28,400.38 576.28,401.76L576.28,428.77C576.28,434.07 576.62,437.31 581.72,437.31C586.82,437.31 587.16,434.07 587.16,428.77L587.16,401.76C587.16,400.38 587.92,399.69 589.23,399.69L596.95,399.69C598.33,399.69 599.02,400.38 599.02,401.76L599.02,432.42C599.02,436.97 598.06,449.16 581.73,449.16C565.4,449.16 564.44,436.97 564.44,432.42L564.44,401.76C564.44,400.38 565.2,399.69 566.51,399.69L574.21,399.69Z" style="fill:rgb(170,208,55);fill-rule:nonzero;"/>
                    <path d="M617.68,399.69C618.85,399.69 619.61,400.17 620.09,401.27L629.46,424.21C629.74,424.83 630.29,424.69 630.29,424L630.29,401.75C630.29,400.37 631.05,399.68 632.36,399.68L640.08,399.68C641.46,399.68 642.15,400.37 642.15,401.75L642.15,445.84C642.15,447.15 641.46,447.91 640.08,447.91L629.95,447.91C628.78,447.91 628.02,447.43 627.54,446.33L618.17,423.39C617.89,422.77 617.34,422.91 617.34,423.6L617.34,445.85C617.34,447.16 616.65,447.92 615.27,447.92L607.55,447.92C606.24,447.92 605.48,447.16 605.48,445.85L605.48,401.76C605.48,400.38 606.24,399.69 607.55,399.69L617.68,399.69Z" style="fill:rgb(170,208,55);fill-rule:nonzero;"/>
                    <path d="M658.67,399.69C660.05,399.69 660.74,400.38 660.74,401.76L660.74,445.85C660.74,447.16 660.05,447.92 658.67,447.92L651.09,447.92C649.78,447.92 649.02,447.16 649.02,445.85L649.02,401.76C649.02,400.38 649.78,399.69 651.09,399.69L658.67,399.69Z" style="fill:rgb(170,208,55);fill-rule:nonzero;"/>
                    <path d="M678.65,413.61C678.65,412.23 677.96,411.54 676.58,411.54L666.94,411.54C665.63,411.54 664.87,410.78 664.87,409.47L664.87,401.75C664.87,400.37 665.63,399.68 666.94,399.68L702.21,399.68C703.59,399.68 704.28,400.37 704.28,401.75L704.28,409.47C704.28,410.78 703.59,411.54 702.21,411.54L692.56,411.54C691.25,411.54 690.49,412.23 690.49,413.61L690.49,445.85C690.49,447.16 689.8,447.92 688.42,447.92L680.7,447.92C679.39,447.92 678.63,447.16 678.63,445.85L678.63,413.61L678.65,413.61Z" style="fill:rgb(170,208,55);fill-rule:nonzero;"/>
                    <path d="M717.78,399.69C718.95,399.69 719.71,400.17 720.12,401.27L725.22,414.08C725.5,414.7 725.91,414.7 726.18,414.08L731.28,401.27C731.69,400.17 732.45,399.69 733.62,399.69L743.47,399.69C745.05,399.69 745.74,400.65 745.05,402.1L732.72,429.66C732.58,429.94 732.58,430.21 732.58,430.49L732.58,445.85C732.58,447.16 731.89,447.92 730.51,447.92L720.86,447.92C719.55,447.92 718.79,447.16 718.79,445.85L718.79,430.49C718.79,430.21 718.79,429.94 718.65,429.66L706.25,402.1C705.56,400.65 706.25,399.69 707.83,399.69L717.78,399.69Z" style="fill:rgb(170,208,55);fill-rule:nonzero;"/>
                </g>
            </g>
            <g>
                <g>
                    <g>
                        <g>
                            <path d="M299.52,352.88L297.1,353.79C282.76,333.53 288.3,314.37 310.95,305.84L313.37,304.93C327.72,325.19 322.18,344.35 299.52,352.88Z" style="fill:rgb(63, 166, 73);fill-rule:nonzero;"/>
                            <path d="M297.1,353.79L313.38,304.92L310.96,305.83C288.3,314.37 282.76,333.53 297.1,353.79Z" style="fill:rgb(170,208,55);fill-rule:nonzero;"/>
                        </g>
                        <g>
                            <path d="M261.86,346.49L261.25,344.88C274.72,335.35 287.46,339.03 293.13,354.09L293.74,355.7C280.27,365.23 267.53,361.55 261.86,346.49Z" style="fill:rgb(63, 166, 73);fill-rule:nonzero;"/>
                            <path d="M261.26,344.88L293.74,355.7L293.13,354.09C287.46,339.03 274.73,335.35 261.26,344.88Z" style="fill:rgb(170,208,55);fill-rule:nonzero;"/>
                        </g>
                    </g>
                </g>
                <path d="M261.21,384.52L273.36,394.4L342.29,359.59L341.55,343.95L261.21,384.52Z" style="fill:rgb(63, 166, 73);fill-rule:nonzero;"/>
                <g>
                    <path d="M325.68,406.87C322.71,401 325.07,393.83 330.94,390.87C335.34,388.65 340.46,389.41 344,392.41L342.75,365.76L278.05,398.43L286.77,405.51C287.32,401.81 289.58,398.42 293.18,396.6C299.05,393.63 306.22,395.99 309.18,401.86C312.15,407.73 309.79,414.9 303.92,417.86C303.5,418.07 303.08,418.25 302.65,418.41L318.81,431.54C319.41,427.92 321.66,424.63 325.18,422.85C331.05,419.88 338.22,422.24 341.18,428.11C344.15,433.98 341.79,441.15 335.92,444.11C335.57,444.29 335.22,444.44 334.86,444.58L346.93,454.39L344.84,409.82C343.95,410.73 342.9,411.52 341.7,412.13C335.81,415.1 328.64,412.75 325.68,406.87Z" style="fill:rgb(170,208,55);fill-rule:nonzero;"/>
                    <path d="M309.18,401.86C306.21,395.99 299.05,393.63 293.18,396.6C289.59,398.42 287.32,401.81 286.77,405.51L302.64,418.41C303.07,418.25 303.5,418.08 303.91,417.86C309.79,414.9 312.14,407.73 309.18,401.86Z" style="fill:rgb(241,125,82);fill-rule:nonzero;"/>
                    <path d="M330.94,390.87C325.07,393.84 322.71,401 325.68,406.87C328.65,412.74 335.81,415.1 341.68,412.13C342.88,411.52 343.93,410.73 344.82,409.82L344,392.41C340.46,389.42 335.34,388.65 330.94,390.87Z" style="fill:rgb(241,125,82);fill-rule:nonzero;"/>
                    <path d="M341.17,428.11C338.2,422.24 331.04,419.88 325.17,422.85C321.65,424.63 319.4,427.92 318.8,431.54L334.85,444.58C335.21,444.44 335.56,444.29 335.91,444.11C341.78,441.15 344.13,433.99 341.17,428.11Z" style="fill:rgb(241,125,82);fill-rule:nonzero;"/>
                </g>
            </g>
        </g>
    </g>
</svg>
