<?xml version="1.0" encoding="utf-8"?>
<!-- Generator: Adobe Illustrator 25.2.1, SVG Export Plug-In . SVG Version: 6.00 Build 0)  -->
<svg version="1.1" id="Layer_1" xmlns="http://www.w3.org/2000/svg" xmlns:xlink="http://www.w3.org/1999/xlink" x="0px" y="0px"
	 viewBox="0 0 1103.28 792" style="enable-background:new 0 0 1103.28 792;" xml:space="preserve">
<style type="text/css">
	.st0{fill:#5FAD46;}
	.st1{fill:#AAD037;}
	.st2{fill:#DD2627;}
</style>
<g>
	<g>
		<g>
			<path class="st0" d="M395.85,343.34c12.26,0,17.22,5.24,17.22,16.53s-4.96,16.53-17.22,16.53h-3.31c-1.31,0-2.07,0.69-2.07,2.07
				v11.02c0,1.38-0.69,2.07-2.07,2.07h-7.72c-1.31,0-2.07-0.76-2.07-2.07v-44.02c0-1.38,0.69-2.07,2.07-2.14H395.85z M396.26,364.56
				c3.31,0,4.96-0.41,4.96-4.68s-1.65-4.69-4.96-4.69h-3.72c-1.31,0-2.07,0.69-2.07,2.07v5.24c0,1.31,0.76,2.07,2.07,2.07H396.26z"
				/>
			<path class="st0" d="M426.99,343.34c1.38,0,2.07,0.69,2.07,2.07v44.09c0,1.31-0.69,2.07-2.07,2.07h-7.58
				c-1.31,0-2.07-0.76-2.07-2.07V345.4c0-1.38,0.76-2.07,2.07-2.07H426.99z"/>
			<path class="st0" d="M468.6,379.71c1.38,0,2.07,0.69,2.07,2.07v7.72c0,1.31-0.69,2.07-2.07,2.07h-34.24
				c-1.65,0-2.27-1.03-1.45-2.48l18.81-33.07c0.28-0.48,0.07-0.83-0.48-0.83h-13.16c-1.31,0-2.07-0.76-2.07-2.07v-7.72
				c0-1.38,0.76-2.07,2.07-2.07h33.21c1.65,0,2.27,1.03,1.45,2.48l-19.15,33.07c-0.28,0.48-0.07,0.83,0.48,0.83H468.6z"/>
			<path class="st0" d="M509.24,379.71c1.38,0,2.07,0.69,2.07,2.07v7.72c0,1.31-0.69,2.07-2.07,2.07H475
				c-1.65,0-2.27-1.03-1.45-2.48l18.81-33.07c0.28-0.48,0.07-0.83-0.48-0.83h-13.16c-1.31,0-2.07-0.76-2.07-2.07v-7.72
				c0-1.38,0.76-2.07,2.07-2.07h33.21c1.65,0,2.27,1.03,1.45,2.48l-19.15,33.07c-0.28,0.48-0.07,0.83,0.48,0.83H509.24z"/>
			<path class="st0" d="M550.65,389.22c0,1.52-0.69,2.34-2.07,2.34h-7.72c-1.31,0-2.07-0.69-2.07-2.07v-5.99
				c0-1.38-0.69-2.07-2.07-2.07h-5.92c-1.31,0-2.07,0.69-2.07,2.07v5.99c0,1.38-0.69,2.07-2.07,2.07h-7.72
				c-1.31,0-2.07-0.83-2.07-2.34v-29.21c0-8.68,1.38-17.91,16.88-17.91s16.88,9.23,16.88,17.91V389.22z M538.8,360.01
				c0-3.31-0.48-4.96-5.03-4.96s-5.03,1.65-5.03,4.96v7.51c0,1.31,0.76,2.07,2.07,2.07h5.92c1.38-0.07,2.07-0.76,2.07-2.14V360.01z"
				/>
			<path class="st0" d="M564.29,343.34c1.24,0,2,0.62,2.27,1.79l6.06,26.46c0.14,0.62,0.69,0.62,0.83,0l6.06-26.46
				c0.28-1.17,1.03-1.79,2.27-1.79h8.2c1.45,0,2.14,0.83,1.79,2.27l-10.06,44.16c-0.28,1.17-1.03,1.79-2.27,1.79h-12.81
				c-1.24,0-2-0.62-2.27-1.79l-10.06-44.16c-0.34-1.45,0.34-2.27,1.79-2.27H564.29z"/>
			<path class="st0" d="M627.46,343.34c1.38,0,2.07,0.69,2.07,2.07v7.72c0,1.31-0.69,2.07-2.07,2.07h-16.67
				c-1.31,0-2.07,0.69-2.07,2.07v2.2c0,1.31,0.76,2.07,2.07,2.07h10.68c1.38,0,2.07,0.69,2.07,2.07v7.72c0,1.31-0.69,2.07-2.07,2.07
				h-10.68c-1.31,0-2.07,0.69-2.07,2.07v2.2c0,1.31,0.76,2.07,2.07,2.07h16.67c1.38,0,2.07,0.69,2.07,2.07v7.72
				c0,1.38-0.69,2.07-2.07,2.07h-28.93c-1.31,0-2.07-0.76-2.07-2.07V345.4c0-1.38,0.76-2.07,2.07-2.07H627.46z"/>
			<path class="st0" d="M634.14,358.84c0-4.55,0.96-16.74,17.29-16.74c14.47,0,16.88,9.51,17.22,14.88c0.07,1.24-0.55,2-1.79,2.27
				l-7.79,1.72c-1.38,0.28-2.14-0.34-2.27-1.79c-0.28-3.31-1.45-5.24-5.37-5.24c-5.1,0-5.44,3.24-5.44,8.54v9.92
				c0,5.3,0.34,8.54,5.44,8.54c5.1,0,5.44-3.24,5.44-6.61h-4c-1.31,0-2.07-0.76-2.07-2.07v-5.51c0-1.38,0.76-2.07,2.07-2.07h13.78
				c1.38,0,2.07,0.69,2.07,2.07v9.3c0,4.55-0.96,16.74-17.29,16.74c-16.33,0-17.29-12.19-17.29-16.74V358.84z"/>
			<path class="st0" d="M708.2,389.22c0,1.52-0.69,2.34-2.07,2.34h-7.72c-1.31,0-2.07-0.69-2.07-2.07v-5.99
				c0-1.38-0.69-2.07-2.07-2.07h-5.92c-1.31,0-2.07,0.69-2.07,2.07v5.99c0,1.38-0.69,2.07-2.07,2.07h-7.72
				c-1.31,0-2.07-0.83-2.07-2.34v-29.21c0-8.68,1.38-17.91,16.88-17.91s16.88,9.23,16.88,17.91V389.22z M696.35,360.01
				c0-3.31-0.48-4.96-5.03-4.96s-5.03,1.65-5.03,4.96v7.51c0,1.31,0.76,2.07,2.07,2.07h5.92c1.38-0.07,2.07-0.76,2.07-2.14V360.01z"
				/>
			<path class="st0" d="M726.94,343.34c1.17,0,1.93,0.48,2.41,1.58l9.37,22.94c0.28,0.62,0.83,0.48,0.83-0.21V345.4
				c0-1.38,0.76-2.07,2.07-2.07h7.72c1.38,0,2.07,0.69,2.07,2.07v44.09c0,1.31-0.69,2.07-2.07,2.07H739.2
				c-1.17,0-1.93-0.48-2.41-1.58l-9.37-22.94c-0.28-0.62-0.83-0.48-0.83,0.21v22.25c0,1.31-0.69,2.07-2.07,2.07h-7.72
				c-1.31,0-2.07-0.76-2.07-2.07V345.4c0-1.38,0.76-2.07,2.07-2.07H726.94z"/>
			<path class="st0" d="M369.81,436.07c1.38,0,2.07,0.69,2.07,2.07v7.72c0,1.31-0.69,2.07-2.07,2.07h-7.72
				c-1.31,0-2.07-0.76-2.07-2.07v-7.72c0-1.38,0.76-2.07,2.07-2.07H369.81z"/>
			<path class="st0" d="M376.35,415.19c0-4.55,0.96-16.74,17.29-16.74c14.67,0,16.95,9.85,17.22,15.16
				c0.07,0.96-0.55,1.72-1.52,1.93l-7.65,1.72c-1.45,0.28-2.55-0.69-2.76-2.14c-0.34-3.03-1.58-4.82-5.3-4.82
				c-5.1,0-5.44,3.24-5.44,8.54v9.92c0,5.3,0.34,8.54,5.44,8.54c3.79,0,4.82-1.79,5.24-4.96c0.21-1.45,1.31-2.34,2.69-2l7.79,1.72
				c0.96,0.21,1.58,0.96,1.52,2c-0.28,5.24-2.55,15.09-17.22,15.09c-16.33,0-17.29-12.19-17.29-16.74V415.19z"/>
			<path class="st0" d="M449.51,432.42c0,4.55-0.96,16.74-17.29,16.74c-16.33,0-17.29-12.19-17.29-16.74v-17.22
				c0-4.55,0.96-16.74,17.29-16.74c16.33,0,17.29,12.19,17.29,16.74V432.42z M437.67,418.84c0-5.3-0.34-8.54-5.44-8.54
				c-5.1,0-5.44,3.24-5.44,8.54v9.92c0,5.3,0.34,8.54,5.44,8.54c5.1,0,5.44-3.24,5.44-8.54V418.84z"/>
			<path class="st0" d="M472.04,399.69c1.24,0,1.93,0.69,2.2,1.86l4.89,20.05c0.14,0.69,0.69,0.69,0.83,0l4.89-20.05
				c0.28-1.17,0.96-1.86,2.2-1.86h14.26c1.38,0,2.07,0.69,2.07,2.07v44.09c0,1.31-0.69,2.07-2.07,2.07h-7.72
				c-1.31,0-2.07-0.76-2.07-2.07v-27.14c0-0.48-0.62-0.55-0.76-0.07l-6.68,27.49c-0.28,1.17-1.03,1.79-2.27,1.79h-4.55
				c-1.24,0-2-0.62-2.27-1.79l-6.68-27.49c-0.14-0.48-0.76-0.41-0.76,0.07v27.14c0,1.31-0.69,2.07-2.07,2.07h-7.72
				c-1.38,0-2.07-0.76-2.07-2.07v-44.09c0-1.38,0.69-2.07,2.07-2.07H472.04z"/>
			<path class="st1" d="M526.6,399.69c1.24,0,1.93,0.69,2.2,1.86l4.89,20.05c0.14,0.69,0.69,0.69,0.83,0l4.89-20.05
				c0.28-1.17,0.96-1.86,2.2-1.86h14.26c1.38,0,2.07,0.69,2.07,2.07v44.09c0,1.31-0.69,2.07-2.07,2.07h-7.72
				c-1.31,0-2.07-0.76-2.07-2.07v-27.14c0-0.48-0.62-0.55-0.76-0.07l-6.68,27.49c-0.28,1.17-1.03,1.79-2.27,1.79h-4.55
				c-1.24,0-2-0.62-2.27-1.79l-6.68-27.49c-0.14-0.48-0.76-0.41-0.76,0.07v27.14c0,1.31-0.69,2.07-2.07,2.07h-7.72
				c-1.38,0-2.07-0.76-2.07-2.07v-44.09c0-1.38,0.69-2.07,2.07-2.07H526.6z"/>
			<path class="st1" d="M574.21,399.69c1.38,0,2.07,0.69,2.07,2.07v27.01c0,5.3,0.34,8.54,5.44,8.54c5.1,0,5.44-3.24,5.44-8.54
				v-27.01c0-1.38,0.76-2.07,2.07-2.07h7.72c1.38,0,2.07,0.69,2.07,2.07v30.66c0,4.55-0.96,16.74-17.29,16.74
				c-16.33,0-17.29-12.19-17.29-16.74v-30.66c0-1.38,0.76-2.07,2.07-2.07H574.21z"/>
			<path class="st1" d="M617.68,399.69c1.17,0,1.93,0.48,2.41,1.58l9.37,22.94c0.28,0.62,0.83,0.48,0.83-0.21v-22.25
				c0-1.38,0.76-2.07,2.07-2.07h7.72c1.38,0,2.07,0.69,2.07,2.07v44.09c0,1.31-0.69,2.07-2.07,2.07h-10.13
				c-1.17,0-1.93-0.48-2.41-1.58l-9.37-22.94c-0.28-0.62-0.83-0.48-0.83,0.21v22.25c0,1.31-0.69,2.07-2.07,2.07h-7.72
				c-1.31,0-2.07-0.76-2.07-2.07v-44.09c0-1.38,0.76-2.07,2.07-2.07H617.68z"/>
			<path class="st1" d="M658.67,399.69c1.38,0,2.07,0.69,2.07,2.07v44.09c0,1.31-0.69,2.07-2.07,2.07h-7.58
				c-1.31,0-2.07-0.76-2.07-2.07v-44.09c0-1.38,0.76-2.07,2.07-2.07H658.67z"/>
			<path class="st1" d="M678.65,413.61c0-1.38-0.69-2.07-2.07-2.07h-9.64c-1.31,0-2.07-0.76-2.07-2.07v-7.72
				c0-1.38,0.76-2.07,2.07-2.07h35.27c1.38,0,2.07,0.69,2.07,2.07v7.72c0,1.31-0.69,2.07-2.07,2.07h-9.65
				c-1.31,0-2.07,0.69-2.07,2.07v32.24c0,1.31-0.69,2.07-2.07,2.07h-7.72c-1.31,0-2.07-0.76-2.07-2.07V413.61z"/>
			<path class="st1" d="M717.78,399.69c1.17,0,1.93,0.48,2.34,1.58l5.1,12.81c0.28,0.62,0.69,0.62,0.96,0l5.1-12.81
				c0.41-1.1,1.17-1.58,2.34-1.58h9.85c1.58,0,2.27,0.96,1.58,2.41l-12.33,27.56c-0.14,0.28-0.14,0.55-0.14,0.83v15.36
				c0,1.31-0.69,2.07-2.07,2.07h-9.65c-1.31,0-2.07-0.76-2.07-2.07v-15.36c0-0.28,0-0.55-0.14-0.83l-12.4-27.56
				c-0.69-1.45,0-2.41,1.58-2.41H717.78z"/>
		</g>
	</g>
	<g>
		<g>
			<g>
				<g>
					<path class="st0" d="M299.52,352.88l-2.42,0.91v0c-14.34-20.26-8.8-39.42,13.85-47.95l2.42-0.91l0,0
						C327.72,325.19,322.18,344.35,299.52,352.88z"/>
					<path class="st1" d="M297.1,353.79l16.28-48.87l-2.42,0.91C288.3,314.37,282.76,333.53,297.1,353.79L297.1,353.79z"/>
				</g>
				<g>
					<path class="st0" d="M261.86,346.49l-0.61-1.61h0c13.47-9.53,26.21-5.85,31.88,9.21l0.61,1.61l0,0
						C280.27,365.23,267.53,361.55,261.86,346.49z"/>
					<path class="st1" d="M261.26,344.88l32.48,10.82l-0.61-1.61C287.46,339.03,274.73,335.35,261.26,344.88L261.26,344.88z"/>
				</g>
			</g>
		</g>
		<path class="st0" d="M261.21,384.52l12.15,9.88l68.93-34.81l-0.74-15.64L261.21,384.52z"/>
		<g>
			<path class="st1" d="M325.68,406.87c-2.97-5.87-0.61-13.04,5.26-16c4.4-2.22,9.52-1.46,13.06,1.54l-1.25-26.65l-64.7,32.67
				l8.72,7.08c0.55-3.7,2.81-7.09,6.41-8.91c5.87-2.97,13.04-0.61,16,5.26c2.97,5.87,0.61,13.04-5.26,16
				c-0.42,0.21-0.84,0.39-1.27,0.55l16.16,13.13c0.6-3.62,2.85-6.91,6.37-8.69c5.87-2.97,13.04-0.61,16,5.26
				c2.97,5.87,0.61,13.04-5.26,16c-0.35,0.18-0.7,0.33-1.06,0.47l12.07,9.81l-2.09-44.57c-0.89,0.91-1.94,1.7-3.14,2.31
				C335.81,415.1,328.64,412.75,325.68,406.87z"/>
			<path class="st2" d="M309.18,401.86c-2.97-5.87-10.13-8.23-16-5.26c-3.59,1.82-5.86,5.21-6.41,8.91l15.87,12.9
				c0.43-0.16,0.86-0.33,1.27-0.55C309.79,414.9,312.14,407.73,309.18,401.86z"/>
			<path class="st2" d="M330.94,390.87c-5.87,2.97-8.23,10.13-5.26,16c2.97,5.87,10.13,8.23,16,5.26c1.2-0.61,2.25-1.4,3.14-2.31
				L344,392.41C340.46,389.42,335.34,388.65,330.94,390.87z"/>
			<path class="st2" d="M341.17,428.11c-2.97-5.87-10.13-8.23-16-5.26c-3.52,1.78-5.77,5.07-6.37,8.69l16.05,13.04
				c0.36-0.14,0.71-0.29,1.06-0.47C341.78,441.15,344.13,433.99,341.17,428.11z"/>
		</g>
	</g>
</g>
</svg>
